<svg width="1516" height="2278" viewBox="0 0 1516 2278" fill="none" xmlns="http://www.w3.org/2000/svg">
<path opacity="0.6" d="M2.23628 2014.7C0.385463 2024.11 1.12864 2032.66 4.11911 2042.34C6.06667 2048.64 7.60348 2053.3 9.37403 2056.67C11.1248 2060.01 13.0482 2061.97 15.7273 2063C18.4663 2064.05 22.1374 2064.19 27.5112 2063.51C32.8702 2062.83 39.7739 2061.36 48.9102 2059.33C59.2496 2057.03 87.8502 2047.15 125.68 2033.04C163.472 2018.94 210.392 2000.65 257.315 1981.57L427.789 1912.26L522.608 1817.29C574.84 1764.98 637.516 1703.48 661.896 1680.62L661.897 1680.62C686.269 1657.78 710.465 1634.81 715.679 1629.57C716.211 1629.04 716.8 1628.12 717.417 1626.79C718.027 1625.48 718.636 1623.82 719.233 1621.85C720.426 1617.91 721.551 1612.8 722.542 1606.87C724.523 1595.02 725.958 1579.96 726.362 1564.55C727.206 1532.65 731.817 1503.04 738.628 1480.89C742.032 1469.82 745.998 1460.57 750.345 1453.82C754.668 1447.1 759.487 1442.68 764.664 1441.61C769.247 1440.67 772.8 1441.1 774.741 1443.8C775.677 1445.1 776.136 1446.81 776.234 1448.85C776.332 1450.9 776.071 1453.35 775.495 1456.21C767.759 1494.59 759.81 1565.55 759.603 1597.99C759.551 1606.09 759.145 1612.79 757.542 1619.25C755.935 1625.72 753.137 1631.91 748.356 1639.02C738.83 1653.2 721.347 1671.16 689.513 1702.54C651.252 1740.25 567.331 1823.6 503.023 1887.77C440.728 1949.93 372.088 2016.54 347.356 2038.86L345.102 2040.88C293.824 2086.47 251.649 2136.52 225.945 2178.87C213.088 2200.05 204.383 2219.25 200.697 2234.97C196.998 2250.74 198.41 2262.71 205.327 2269.79C209.528 2274.09 214.148 2276.58 220.374 2276.84C226.667 2277.11 234.696 2275.12 245.69 2270.2C267.681 2260.37 301.076 2239.07 355.32 2202.01L355.321 2202.01C410.553 2164.3 510.681 2099.16 577.838 2057.27L699.623 1981.29L761.074 1803.92C806.15 1673.81 828.277 1616.98 831.029 1549.02C833.782 1481.01 817.137 1401.88 784.403 1227.21C735.42 965.815 730.04 927.307 734.06 865.97C736.483 828.99 741.076 795.562 747.147 768.771C753.207 742.031 760.771 721.749 769.223 711.198C771.564 708.274 773.687 706.003 775.589 704.424C777.468 702.864 779.245 701.881 780.89 701.727C782.655 701.563 784.083 702.366 785.106 703.904C786.085 705.376 786.722 707.547 787.098 710.306C787.853 715.848 787.611 724.228 786.421 735.445C785.229 746.682 783.076 760.836 779.974 777.959C768.535 841.093 763.899 885.041 769.439 949.189C774.983 1013.39 790.719 1097.82 820.066 1241.91C839.661 1338.12 852.774 1406.3 860.668 1454.12C868.554 1501.9 871.252 1529.45 869.958 1544.33C865.034 1601.07 843.099 1677.44 793.634 1810.3C739.799 1954.92 722.188 2032.53 728.948 2094.53C731.166 2114.86 733.429 2130.26 736.046 2140.87C737.356 2146.18 738.743 2150.25 740.231 2153.12C741.734 2156.02 743.25 2157.52 744.723 2158.02C746.125 2158.5 747.792 2158.16 749.881 2156.57C751.977 2154.98 754.342 2152.25 757.008 2148.3C762.334 2140.41 768.685 2127.97 776.385 2111.01C792.161 2076.27 804.158 2055.74 818.563 2045.38C833.086 2034.93 849.87 2034.91 874.727 2040.5L910.378 2048.49L941.998 2003.04C959.612 1977.72 992.166 1934.35 1014.35 1906.65C1040.56 1873.94 1062.43 1832.94 1077.2 1788.82C1089.68 1751.5 1127.28 1651.92 1160.74 1567.55C1200.7 1466.78 1223.88 1402.63 1237.23 1345.33C1250.58 1288.06 1254.11 1237.6 1254.75 1164.2C1255.32 1098.12 1263.22 1000.79 1272.29 947.875C1292.95 827.462 1349.45 664.062 1400.46 577.299C1447.67 496.998 1538.53 385.473 1601.15 330.995C1613.78 320.007 1626.06 308.514 1635.67 298.851C1640.48 294.019 1644.61 289.651 1647.78 286.037C1650.98 282.399 1653.14 279.591 1654.06 277.86C1657.7 271.047 1660.1 258.906 1661.28 243.164C1662.47 227.469 1662.43 208.337 1661.28 187.653C1658.97 146.281 1652.2 98.7802 1641.81 60.256L1641.81 60.2562C1617.2 -31.0265 1587.34 -92.6878 1532.13 -166.278C1504.83 -202.677 1484.05 -227.323 1467.51 -242.327C1450.92 -257.374 1438.85 -262.489 1428.91 -260.444C1428.77 -260.416 1428.48 -260.309 1428.02 -260.05C1427.57 -259.801 1427.01 -259.446 1426.34 -258.978C1425 -258.044 1423.28 -256.697 1421.18 -254.953C1416.98 -251.466 1411.33 -246.428 1404.41 -240.004C1390.56 -227.158 1371.63 -208.8 1348.98 -186.285C1303.69 -141.256 1243.54 -79.6223 1179.48 -12.2528C1051.35 122.477 917.79 258.728 882.685 290.498C800.49 364.885 750.837 420.865 711.708 506.293C672.552 591.779 643.915 706.793 603.89 899.311C567.081 1076.37 544.918 1172.84 512.382 1240.72C479.805 1308.69 436.843 1347.98 358.688 1410.75C330.039 1433.77 302.399 1457.31 280.95 1476.7C270.224 1486.39 261.053 1495.04 254.08 1502.06C247.078 1509.11 242.367 1514.45 240.486 1517.54C236.662 1523.83 233.222 1533.23 230.783 1543.35C228.346 1553.46 226.931 1564.19 227.114 1573.1C227.341 1584.3 228.578 1592.6 231.307 1598.2C232.662 1600.98 234.372 1603.06 236.487 1604.51C238.601 1605.96 241.179 1606.81 244.335 1607.04C250.693 1607.49 259.29 1605.4 270.798 1600.64C282.279 1595.89 296.537 1588.54 314.17 1578.61C398.586 1531.05 477.211 1464.83 540.918 1387.58C568.86 1353.7 583.03 1336.2 589.703 1321.93C596.313 1307.79 595.559 1296.84 593.304 1275.83C591.103 1255.35 592.159 1236.27 595.457 1222.88C597.102 1216.2 599.328 1210.84 602.065 1207.43C603.438 1205.72 604.979 1204.45 606.687 1203.79C608.417 1203.13 610.25 1203.11 612.123 1203.79C612.56 1203.95 612.915 1204.26 613.196 1204.58C613.488 1204.92 613.77 1205.34 614.043 1205.82C614.589 1206.78 615.16 1208.08 615.749 1209.65C616.928 1212.81 618.223 1217.2 619.554 1222.5C622.22 1233.09 625.056 1247.39 627.421 1262.83L636.008 1318.88L636.075 1319.32L635.796 1319.66L574.905 1394.71C502.805 1483.59 407.375 1559.86 255.707 1649.94C177.464 1696.4 131.945 1725.69 106.087 1749.98C93.1763 1762.11 85.2165 1772.95 80.5296 1784.01C75.8447 1795.06 74.3975 1806.41 74.6267 1819.62C74.8649 1833.38 75.8094 1843.47 78.6799 1850.03C80.1007 1853.28 81.9695 1855.61 84.4119 1857.1C86.8585 1858.6 89.9804 1859.32 94.0122 1859.18C102.13 1858.89 113.655 1855.12 130.012 1847.67C146.335 1840.23 167.34 1829.19 194.372 1814.49C351.984 1728.75 499.348 1623.78 603.107 1523.33C616.178 1510.67 625.944 1501.23 633.205 1493.4C640.466 1485.57 645.169 1479.42 648.15 1473.37C654.096 1461.3 653.296 1449.46 651.662 1424.95C650.046 1400.76 652.329 1377.35 657.218 1359.51C659.662 1350.59 662.768 1343.02 666.397 1337.43C670.011 1331.87 674.239 1328.12 678.974 1327.15C683.751 1326.16 687.428 1326.52 689.452 1329.18C690.435 1330.47 690.919 1332.18 691.03 1334.23C691.14 1336.28 690.881 1338.75 690.303 1341.64C688.557 1350.37 687.03 1375.37 686.937 1397.19C686.838 1420.65 686.892 1438 686.054 1451.68C685.215 1465.38 683.478 1475.5 679.757 1484.51C676.033 1493.54 670.352 1501.38 661.737 1510.57C653.135 1519.75 641.55 1530.33 625.997 1544.8C495.612 1666.06 365.108 1760.45 231.117 1830.39C166.707 1864.02 118.479 1892.11 83.5785 1916.68C49.2075 1940.88 27.8472 1961.59 16.6586 1980.72L16.1328 1981.63C8.57246 1994.91 4.09329 2005.27 2.23628 2014.7ZM784.465 2193.49C783.943 2201.58 784.658 2208.22 786.557 2213.21C788.446 2218.17 791.489 2221.46 795.661 2222.98L795.662 2222.98C795.672 2222.99 795.79 2223.02 796.096 2222.93C796.397 2222.83 796.798 2222.63 797.303 2222.29C798.31 2221.62 799.584 2220.49 801.1 2218.93C804.122 2215.8 807.972 2211.04 812.389 2205C821.215 2192.94 832.229 2175.84 843.291 2156.63C854.049 2137.95 862.144 2122.36 867.591 2109.69C873.05 2097 875.807 2087.34 875.981 2080.51C876.068 2077.1 875.51 2074.47 874.399 2072.52C873.303 2070.6 871.622 2069.27 869.285 2068.51C864.512 2066.96 857.043 2067.81 846.687 2071.23C830.698 2076.5 818.793 2092.07 802.288 2130.46C791.477 2155.61 785.51 2177.31 784.465 2193.49Z" stroke="white" stroke-width="2"/>
</svg>
