<svg viewBox="0 0 600 600" fill="none" xmlns="http://www.w3.org/2000/svg">
<path d="M76.6957 365.478L14.8696 371.739L7.82617 301.043L69.6523 294.782L70.9566 307.304L20.6088 312.261L25.0436 357.913L75.3914 352.956L76.6957 365.478Z" fill="white"/>
<path d="M65.4782 190.174C87.6521 197.478 93.3912 211.565 84.2608 239.217C75.1303 266.869 62.3477 274.956 40.1738 267.652C17.9999 260.348 12.5217 246.26 21.6521 218.608C30.7825 190.956 43.3043 182.869 65.4782 190.174ZM61.5651 201.913C46.6956 196.956 39.1303 202.174 32.6086 222C26.0869 241.826 29.2173 250.434 44.0868 255.391C58.9564 260.348 66.7825 255.13 73.3043 235.304C79.826 215.739 76.6956 206.869 61.5651 201.913Z" fill="white"/>
<path d="M99.3913 190.695L82.4348 174.782L89.4783 167.217C88.4348 162.782 85.8261 156.521 79.5652 148.956L67.5652 134.087L112.174 86.6084L140.348 113.217L147.652 105.652L164.609 121.565L156.261 130.434L147.652 122.348L99.1304 173.739L107.739 181.826L99.3913 190.695ZM131.739 122.087L111.913 103.565L83.2174 134.087L89.4783 141.913C94.9565 148.695 97.8261 153.913 98.6087 157.304L131.739 122.087Z" fill="white"/>
<path d="M238.695 56.8699C247.304 78.522 240 91.8264 213.13 102.522C186 113.218 171.652 108.261 163.043 86.609C154.435 64.9568 161.739 51.6524 188.869 40.9568C215.739 30.7829 230.087 35.2177 238.695 56.8699ZM226.956 61.5655C221.217 46.9568 212.348 44.3481 193.043 52.1742C173.478 59.7394 169.043 67.8263 174.782 82.435C180.522 97.0437 189.391 99.9133 208.956 92.0872C228.261 84.2612 232.695 76.1742 226.956 61.5655Z" fill="white"/>
<path d="M331.043 25.5653L346.956 26.3478L343.826 88.4348L331.304 87.6522L333.913 38.6087L283.565 85.3044L267.652 84.5218L270.782 22.4348L283.304 23.2175L280.696 72.2609L331.043 25.5653ZM291.13 0L302.348 0.521771C303.391 4.17394 305.478 6.78264 310.174 7.04351C314.869 7.30438 317.217 4.95654 318.522 1.56523L329.739 2.087C326.087 14.087 318.522 16.9566 309.652 16.4348C300.522 15.9131 293.478 12.2609 291.13 0Z" fill="white"/>
<path d="M357.652 90.0007L368.869 69.392L377.739 74.3485C381.913 72.2615 387.13 68.0876 392.869 60.0007L404.087 44.6094L461.478 75.6528L442.956 109.566L452.087 114.522L440.869 135.131L430.174 129.392L435.913 118.957L373.565 85.0442L367.826 95.4789L357.652 90.0007ZM432.261 104.088L445.304 80.0877L408.522 60.0007L402.522 68.0876C397.304 75.1311 393.13 79.0441 390 80.8702L432.261 104.088Z" fill="white"/>
<path d="M536.087 158.348L545.478 171.392L495.391 207.913L488.087 197.739L527.739 168.783L459.913 159.131L450.522 146.087L500.609 109.565L507.913 119.739L468.261 148.696L536.087 158.348Z" fill="white"/>
<path d="M514.174 306C513.913 277.305 523.826 266.087 548.609 265.827C577.565 265.566 589.565 277.305 589.826 305.74C590.087 321.653 591.131 328.435 594 328.696V342.261C582.522 340.174 578.348 331.044 578.087 305.479C577.826 284.348 572.609 279.131 557.478 278.609C562.957 282.783 566.609 292.957 566.87 306C567.131 334.174 559.044 345.392 541.565 345.653C523.305 345.392 514.696 332.87 514.174 306ZM541.565 332.609C551.218 332.609 555.391 324.261 555.391 305.479C555.391 286.957 551.478 278.348 541.044 278.348C530.348 278.348 525.391 286.435 525.652 305.74C526.174 326.087 531.131 332.609 541.565 332.609Z" fill="white"/>
<path d="M483.391 429.131L488.348 417.652L534.783 437.479L549.913 402L527.739 388.957C511.565 379.566 509.478 368.348 514.957 355.565L525.652 360C522.261 368.087 524.609 372.783 534.522 378.522L565.044 396.261L540.522 453.391L483.391 429.131Z" fill="white"/>
<path d="M469.304 532.174L457.565 543.131L415.565 497.479L424.696 488.87L457.826 525.131L459.913 456.522L471.652 445.565L513.652 491.218L504.522 499.826L471.391 463.565L469.304 532.174Z" fill="white"/>
<path d="M324.522 561.13L280.435 538.956L297.913 534.782L332.87 553.043L344.87 550.174L338.87 525.13L351.13 522.261L357.13 547.304L369.13 544.435L392.348 512.608L409.826 508.435L380.348 548.087L422.609 569.217L405.13 573.391L371.217 555.913L359.478 558.782L365.217 583.043L352.957 585.913L347.217 561.652L335.478 564.522L313.044 595.304L295.565 599.478L324.522 561.13Z" fill="white"/>
<path d="M195.652 538.695L258.261 554.348C259.565 542.087 252.783 536.869 236.348 532.695C226.174 530.087 217.043 529.304 212.609 532.695L199.565 529.304C208.435 518.348 218.609 516.261 239.217 521.217C266.87 528 275.217 541.304 269.739 563.739C264.261 585.13 248.087 591.652 223.304 585.391C197.478 578.869 189.13 565.826 193.043 549.652L195.652 538.695ZM205.043 552.782C202.435 563.478 208.174 569.739 225.913 574.174C244.435 578.869 251.217 577.565 255.652 565.565L205.043 552.782Z" fill="white"/>
<path d="M62.3479 482.608L67.3044 446.608L104.609 447.13L113.478 457.565L85.0436 457.304L123.913 503.217L114.783 511.043L75.3914 464.608L71.4783 493.043L62.3479 482.608Z" fill="white"/>
</svg>
