<svg width="43" height="43" viewBox="0 0 43 43" fill="none" xmlns="http://www.w3.org/2000/svg">
<path d="M22.5088 1.09324L23.508 14.3063C23.736 17.3214 26.0004 19.7875 28.9851 20.2714L42.0652 22.3918L28.8521 23.3911C25.837 23.6191 23.3709 25.8835 22.8871 28.8682L20.7666 41.9483L19.7674 28.7352C19.5393 25.7201 17.275 23.254 14.2902 22.7702L1.21016 20.6497L14.4233 19.6504C17.4384 19.4224 19.9045 17.158 20.3883 14.1733L22.5088 1.09324Z" fill="currentColor"/>
<path d="M22.1517 9.46852L23.2706 15.6335C23.4219 16.4672 24.3528 16.9001 25.0878 16.4786L30.5234 13.3619L26.9553 18.5124C26.4727 19.2089 26.8248 20.1733 27.6427 20.395L33.69 22.0347L27.525 23.1536C26.6913 23.3049 26.2584 24.2358 26.6799 24.9709L29.7966 30.4064L24.6461 26.8383C23.9496 26.3558 22.9852 26.7079 22.7635 27.5257L21.1238 33.573L20.0049 27.4081C19.8536 26.5743 18.9227 26.1414 18.1876 26.5629L12.7521 29.6796L16.3202 24.5291C16.8027 23.8326 16.4506 22.8682 15.6328 22.6465L9.58549 21.0068L15.7505 19.8879C16.5842 19.7366 17.0171 18.8057 16.5956 18.0707L13.4789 12.6351L18.6294 16.2032C19.3259 16.6858 20.2903 16.3337 20.512 15.5159L22.1517 9.46852Z" fill="currentColor"/>
</svg>
